<svg xmlns="http://www.w3.org/2000/svg" xmlns:xlink="http://www.w3.org/1999/xlink" width="841" height="583.178" viewBox="0 0 841 583.178">
  <defs>
    <style>
      .cls-1 {
        fill: #212121;
      }

      .cls-2 {
        fill: #ff6157;
      }

      .cls-3 {
        fill: #ffc12f;
      }

      .cls-4 {
        fill: #2acb42;
      }

      .cls-14, .cls-5 {
        fill: none;
      }

      .cls-5 {
        stroke: #ccc;
        stroke-linecap: round;
      }

      .cls-6 {
        fill: #fff;
      }

      .cls-7 {
        fill: #6c63ff;
      }

      .cls-8 {
        fill: #e6e6e6;
      }

      .cls-9 {
        fill: #3f3d56;
      }

      .cls-10 {
        fill: #ffb8b8;
      }

      .cls-11 {
        fill: #2f2e41;
      }

      .cls-12 {
        fill: #ffb9b9;
      }

      .cls-13 {
        fill: #575a89;
      }

      .cls-14 {
        stroke: #3f3d56;
        stroke-miterlimit: 10;
      }

      .cls-15 {
        opacity: 0.1;
      }

      .cls-16 {
        filter: url(#Rectangle_5);
      }
    </style>
    <filter id="Rectangle_5" x="0" y="0" width="841" height="583.178" filterUnits="userSpaceOnUse">
      <feOffset dx="-15" dy="15" input="SourceAlpha"/>
      <feGaussianBlur stdDeviation="10" result="blur"/>
      <feFlood flood-color="#eee" flood-opacity="0.161"/>
      <feComposite operator="in" in2="blur"/>
      <feComposite in="SourceGraphic"/>
    </filter>
  </defs>
  <g id="Group_17" data-name="Group 17" transform="translate(-1052 -1358.5)">
    <g id="Group_12" data-name="Group 12" transform="translate(-927 557)">
      <g class="cls-16" transform="matrix(1, 0, 0, 1, 1979, 801.5)">
        <rect id="Rectangle_5-2" data-name="Rectangle 5" class="cls-1" width="781" height="523.178" rx="20" transform="translate(45 15)"/>
      </g>
      <g id="Group_5" data-name="Group 5" transform="translate(2050 836.5)">
        <ellipse id="Ellipse_5" data-name="Ellipse 5" class="cls-2" cx="9.5" cy="9" rx="9.5" ry="9"/>
        <circle id="Ellipse_5-2" data-name="Ellipse 5" class="cls-3" cx="9" cy="9" r="9" transform="translate(31)"/>
        <ellipse id="Ellipse_5-3" data-name="Ellipse 5" class="cls-4" cx="9.5" cy="9" rx="9.5" ry="9" transform="translate(61)"/>
      </g>
      <line id="Line_1" data-name="Line 1" class="cls-5" x2="729.418" transform="translate(2049.918 872.203)"/>
    </g>
    <g id="Group_13" data-name="Group 13" transform="translate(0 -44)">
      <path id="Path_44" data-name="Path 44" class="cls-6" d="M454.1,210.621H322.253a2.444,2.444,0,0,1-2.442-2.442V175.473a2.444,2.444,0,0,1,2.442-2.442H454.1a2.444,2.444,0,0,1,2.442,2.442v32.706a2.444,2.444,0,0,1-2.442,2.442ZM322.253,174.009a1.467,1.467,0,0,0-1.465,1.465v32.706a1.467,1.467,0,0,0,1.465,1.465H454.1a1.467,1.467,0,0,0,1.465-1.465V175.473a1.467,1.467,0,0,0-1.465-1.465Z" transform="translate(1012.727 1402.148)"/>
      <circle id="Ellipse_10" data-name="Ellipse 10" class="cls-7" cx="9.946" cy="9.946" r="9.946" transform="translate(1345.521 1582.773)"/>
      <path id="Path_45" data-name="Path 45" class="cls-8" d="M401.415,192.745a1.658,1.658,0,1,0,0,3.315h78.146a1.658,1.658,0,1,0,0-3.315Z" transform="translate(977.022 1393.343)"/>
      <path id="Path_46" data-name="Path 46" class="cls-8" d="M401.415,210.718a1.658,1.658,0,0,0,0,3.315h33.626a1.658,1.658,0,1,0,0-3.315Z" transform="translate(977.022 1385.316)"/>
      <path id="Path_47" data-name="Path 47" class="cls-6" d="M409.78,398.432h-58.6a2.444,2.444,0,0,1-2.442-2.442V334.962a2.444,2.444,0,0,1,2.442-2.442h58.6a2.444,2.444,0,0,1,2.442,2.442V395.99A2.445,2.445,0,0,1,409.78,398.432Zm-58.6-64.935a1.467,1.467,0,0,0-1.465,1.465V395.99a1.466,1.466,0,0,0,1.465,1.465h58.6a1.467,1.467,0,0,0,1.465-1.465V334.962a1.467,1.467,0,0,0-1.465-1.465Z" transform="translate(999.807 1330.917)"/>
      <path id="Path_48" data-name="Path 48" class="cls-8" d="M374.377,355.263a1.658,1.658,0,1,0,0,3.315H408a1.658,1.658,0,1,0,0-3.315Z" transform="translate(989.097 1320.759)"/>
      <path id="Path_49" data-name="Path 49" class="cls-8" d="M374.377,372.911a1.658,1.658,0,0,0,0,3.315H408a1.658,1.658,0,1,0,0-3.315Z" transform="translate(989.097 1312.877)"/>
      <path id="Path_50" data-name="Path 50" class="cls-7" d="M397.677,412.043a10.434,10.434,0,1,1,10.434-10.434A10.434,10.434,0,0,1,397.677,412.043Z" transform="translate(982.611 1304.72)"/>
      <path id="Path_51" data-name="Path 51" class="cls-6" d="M630.542,85.393h58.6a2.444,2.444,0,0,1,2.442,2.442v61.028a2.444,2.444,0,0,1-2.442,2.442h-58.6a2.444,2.444,0,0,1-2.442-2.442V87.835a2.445,2.445,0,0,1,2.442-2.442Zm58.6,64.935a1.467,1.467,0,0,0,1.465-1.465V87.835a1.467,1.467,0,0,0-1.465-1.465h-58.6a1.467,1.467,0,0,0-1.465,1.465v61.028a1.466,1.466,0,0,0,1.465,1.465Z" transform="translate(875.039 1441.289)"/>
      <path id="Path_52" data-name="Path 52" class="cls-8" d="M687.365,179.082a1.658,1.658,0,1,0,0-3.315H653.739a1.658,1.658,0,0,0,0,3.315Z" transform="translate(864.328 1400.926)"/>
      <path id="Path_53" data-name="Path 53" class="cls-8" d="M687.365,161.433a1.658,1.658,0,1,0,0-3.315H653.739a1.658,1.658,0,0,0,0,3.315Z" transform="translate(864.328 1408.808)"/>
      <path id="Path_54" data-name="Path 54" class="cls-7" d="M677.038,108.135A10.434,10.434,0,1,1,666.6,118.569,10.434,10.434,0,0,1,677.038,108.135Z" transform="translate(857.843 1431.132)"/>
      <path id="Path_55" data-name="Path 55" class="cls-6" d="M320.2,298.366a83.535,83.535,0,0,1,35.364-15.987,82.326,82.326,0,0,1,39.029,2.005,83.26,83.26,0,0,1,18.213,7.892A105.984,105.984,0,0,1,429,304.35c5.146,4.51,10.123,9.221,15.5,13.467a86.809,86.809,0,0,0,54.012,19q2.433,0,4.863-.134c.878-.048.884-1.421,0-1.372a85.41,85.41,0,0,1-55.834-16.872c-5.568-4.164-10.652-8.924-15.842-13.537a122.532,122.532,0,0,0-15.908-12.416A84.035,84.035,0,0,0,323.01,294.6c-1.288.9-2.547,1.832-3.785,2.8-.7.542.281,1.507.97.97Z" transform="translate(1013.096 1354.573)"/>
      <circle id="Ellipse_11" data-name="Ellipse 11" class="cls-9" cx="7.131" cy="7.131" r="7.131" transform="translate(1325.433 1645.311)"/>
      <circle id="Ellipse_12" data-name="Ellipse 12" class="cls-9" cx="7.131" cy="7.131" r="7.131" transform="translate(1590.71 1739.987)"/>
      <path id="Path_56" data-name="Path 56" class="cls-6" d="M770.863,357.533H654.511a2.444,2.444,0,0,1-2.442-2.442v-60.54a2.444,2.444,0,0,1,2.442-2.441H770.863a2.444,2.444,0,0,1,2.442,2.442v60.54a2.444,2.444,0,0,1-2.442,2.441ZM654.511,293.087a1.467,1.467,0,0,0-1.465,1.465v60.54a1.467,1.467,0,0,0,1.465,1.465H770.863a1.467,1.467,0,0,0,1.465-1.465v-60.54a1.467,1.467,0,0,0-1.465-1.465Z" transform="translate(864.334 1348.965)"/>
      <circle id="Ellipse_13" data-name="Ellipse 13" class="cls-7" cx="9.946" cy="9.946" r="9.946" transform="translate(1528.409 1652.575)"/>
      <path id="Path_57" data-name="Path 57" class="cls-8" d="M731.908,318.883a1.658,1.658,0,0,0,0,3.315h62.651a1.658,1.658,0,1,0,0-3.315Z" transform="translate(829.417 1337.007)"/>
      <path id="Path_58" data-name="Path 58" class="cls-8" d="M731.908,336.856a1.658,1.658,0,0,0,0,3.315h33.626a1.658,1.658,0,1,0,0-3.315Z" transform="translate(829.417 1328.98)"/>
      <path id="Path_59" data-name="Path 59" class="cls-8" d="M676.106,365.589c-1.261,0-2.287.744-2.287,1.658s1.026,1.658,2.287,1.658h92.322c1.261,0,2.287-.744,2.287-1.658s-1.026-1.658-2.287-1.658Z" transform="translate(854.62 1316.148)"/>
      <path id="Path_60" data-name="Path 60" class="cls-8" d="M676.106,383.562c-1.261,0-2.287.744-2.287,1.658s1.026,1.658,2.287,1.658h92.322c1.261,0,2.287-.744,2.287-1.658s-1.026-1.658-2.287-1.658Z" transform="translate(854.62 1308.12)"/>
      <path id="Path_61" data-name="Path 61" class="cls-6" d="M638.668,485.092c6.171-1.736,13.062-.222,18.878,1.377,3,.824,5.96,1.7,9.06,2.354a75.922,75.922,0,0,0,7.988,1.227,86.789,86.789,0,0,0,16.409.065,82.2,82.2,0,0,0,15.836-2.986,61.869,61.869,0,0,0,13.705-5.81q.779-.456,1.528-.933c.594-.377-.318-.969-.912-.591a58.025,58.025,0,0,1-13.37,6.12,79.21,79.21,0,0,1-15.534,3.236,84.305,84.305,0,0,1-16.369.183,76.3,76.3,0,0,1-8.014-1.13q-4.516-.952-8.846-2.227c-5.871-1.635-12.394-3.236-18.846-2.108a21.89,21.89,0,0,0-2.164.5c-.76.214-.1.934.651.722Z" transform="translate(870.761 1272.11)"/>
      <path id="Path_62" data-name="Path 62" class="cls-7" d="M590.632,501.317H535.661L548.6,478.91a2.642,2.642,0,0,1,4.576,0l5.526,9.572,9.4-16.275a3.307,3.307,0,0,1,5.729,0Z" transform="translate(916.324 1269.269)"/>
      <path id="Path_63" data-name="Path 63" class="cls-6" d="M585.827,495.8h-58.6a2.444,2.444,0,0,1-2.442-2.442V460.65a2.444,2.444,0,0,1,2.442-2.442h58.6a2.444,2.444,0,0,1,2.442,2.442v32.706a2.444,2.444,0,0,1-2.442,2.442Zm-58.6-36.612a1.467,1.467,0,0,0-1.465,1.465v32.706a1.467,1.467,0,0,0,1.465,1.465h58.6a1.467,1.467,0,0,0,1.465-1.465V460.65a1.467,1.467,0,0,0-1.465-1.465Z" transform="translate(921.181 1274.782)"/>
      <path id="Path_64" data-name="Path 64" class="cls-10" d="M827.019,441.546l-10.445,5.3c-3.728,1.893-7.326,1.57-8.7-2.378h0a6.907,6.907,0,0,1,5.254-9.066l9.927-1.853,42.516-14.106,25.754-18.262,9.441,15.041L871,432.284Z" transform="translate(794.923 1300.25)"/>
      <path id="Path_65" data-name="Path 65" class="cls-10" d="M807.358,693.614l-7.992-1.332.888-15.1h8.436Z" transform="translate(863.342 1224.236)"/>
      <path id="Path_66" data-name="Path 66" class="cls-10" d="M942.875,667.91l-7.734,2.413-6.01-13.875,7.53-3.8Z" transform="translate(805.386 1235.197)"/>
      <path id="Path_67" data-name="Path 67" class="cls-11" d="M991.63,625.626l-9.767,4-46.615-61.268L920.6,640.276l-9.767-1.776c-6.265-62.007-11.375-125.254-5.105-155.168l36.183-1.554,16.427,52.388,7.992,35.518Z" transform="translate(752.323 1264.255)"/>
      <path id="Path_68" data-name="Path 68" class="cls-11" d="M914.622,799.523h0a7.013,7.013,0,0,1-4.347-.462l-4.747-2.136c-3.981-.2-6.691.588-8.907-2.3a5.808,5.808,0,0,1-.678-5.856h0a5.848,5.848,0,0,1,4.776-3.475l6.521-4.109.342,3.08c2.98,1.688,6.518.959,10.267-.684l2.047,7.163a7.012,7.012,0,0,1-5.273,8.783Z" transform="translate(755.637 1130.536)"/>
      <path id="Path_69" data-name="Path 69" class="cls-11" d="M1059.674,774.756h0a7.013,7.013,0,0,1-4.261.975l-5.184-.479c-3.831,1.1-6.137,2.729-9.173.714a5.808,5.808,0,0,1-2.543-5.318h0a5.849,5.849,0,0,1,3.389-4.838l4.833-6,1.324,2.8c3.367.629,6.476-1.21,9.489-3.982l4.262,6.11a7.012,7.012,0,0,1-2.135,10.02Z" transform="translate(691.75 1140.609)"/>
      <circle id="Ellipse_14" data-name="Ellipse 14" class="cls-10" cx="15.983" cy="15.983" r="15.983" transform="translate(1664.928 1651.024)"/>
      <path id="Path_70" data-name="Path 70" class="cls-10" d="M848.57,294.487l-20.867-4.44-2.663-17.315,14.651-3.108Z" transform="translate(851.875 1406.262)"/>
      <path id="Path_71" data-name="Path 71" class="cls-7" d="M944.12,440.231H906.826l8.406-21.1c-.611-7.262,2.467-12.6,6.872-17.253l5.589-14.031c9.03-5.943,15.837-5.5,23.086,2.22C959.372,402.231,953.425,420.525,944.12,440.231Z" transform="translate(750.554 1308.023)"/>
      <path id="Path_72" data-name="Path 72" class="cls-10" d="M933.184,505.55l-1.061,11.667c-.379,4.164-2.565,7.039-6.641,6.108h0a6.907,6.907,0,0,1-4.885-9.269l3.708-9.393,10.655-43.509-1.776-31.522h17.759l-2.22,33.742Z" transform="translate(744.62 1287.545)"/>
      <path id="Path_73" data-name="Path 73" class="cls-7" d="M961.747,413.328H941.325l1.432-13.323a9.242,9.242,0,0,1,8.773-8.853h0a9.242,9.242,0,0,1,9.7,8.868Z" transform="translate(735.146 1304.736)"/>
      <circle id="Ellipse_15" data-name="Ellipse 15" class="cls-11" cx="6.008" cy="6.008" r="6.008" transform="translate(1694.684 1638.558)"/>
      <path id="Path_74" data-name="Path 74" class="cls-11" d="M973.292,291.184a6,6,0,0,1,6-5.615c-.124-.016-.247-.035-.374-.043a6.008,6.008,0,0,0-.771,11.99c.126.008.251,0,.376.005A6,6,0,0,1,973.292,291.184Z" transform="translate(721.21 1351.911)"/>
      <path id="Path_75" data-name="Path 75" class="cls-11" d="M946.044,299.069c-5.358-4.445-20.725,1.2-21.717,4.192-7.245.987-12.731,5.215-12.731,12.731h0c4.307,1.765,9.206,1.547,14.5,0,8.442,6.88,9.021,15.528,3.887,25.461l6.316.126,7.829-11.443.374,11.607,14.478-.29V324.821a34.776,34.776,0,0,0-3.713-15.932C953.014,304.506,949.513,301.946,946.044,299.069Z" transform="translate(748.424 1346.591)"/>
      <ellipse id="Ellipse_16" data-name="Ellipse 16" class="cls-10" cx="2.873" cy="4.022" rx="2.873" ry="4.022" transform="translate(1678.113 1667.004)"/>
      <path id="Path_76" data-name="Path 76" class="cls-12" d="M296.282,335.976s1.729-29.932,10.707-23.131-3.921,25.907-3.921,25.907Z" transform="translate(1023.236 1340.153)"/>
      <path id="Path_77" data-name="Path 77" class="cls-12" d="M230.466,515.9s19.943,22.388,8.785,23.927S223.7,518.736,223.7,518.736Z" transform="translate(1055.65 1249.016)"/>
      <path id="Path_78" data-name="Path 78" class="cls-13" d="M176.7,324.3h0a13.134,13.134,0,0,1,9.664,10.874l6.343,45.151L201.6,416.34s4.446,4,2.668,6.225,2.223,11.561,2.223,11.561l-11.116,3.557s-1.334-9.338-3.557-9.782c-1.954-.391-23.826-58.818-29.1-72.973-.727-1.952-1.138-3.062-1.138-3.062S162.467,322.076,176.7,324.3Z" transform="translate(1083.397 1334.641)"/>
      <path id="Path_79" data-name="Path 79" class="cls-12" d="M185.7,749.885l6.828,12.1c5.287,11.289.589,13.339-12.375,7.744L177.2,755.441Z" transform="translate(1076.42 1144.513)"/>
      <path id="Path_80" data-name="Path 80" class="cls-11" d="M186.563,775.318s3.241-5.277,4.414-4.394,6.008,4.711,6.008,4.711l6.3,6.032s21.279,2.25,7.758,9.705-20.994,1.274-20.994,1.274-18.938.985-18.633-4.3,6.413-13.643,6.413-13.643S185.525,779.867,186.563,775.318Z" transform="translate(1079.006 1135.161)"/>
      <path id="Path_81" data-name="Path 81" class="cls-11" d="M137.815,494.638l6.4,77.453s.213,46.3,7.041,55.263S158.3,640.8,158.3,640.8l14.082-7.255s-7.255-12.088-5.761-13.939a10.314,10.314,0,0,0,1.92-3.984L164.7,567.824l7.255-83.214Z" transform="translate(1094.01 1262.99)"/>
      <path id="Path_82" data-name="Path 82" class="cls-14" d="M155.551,766.85" transform="translate(1086.089 1136.936)"/>
      <path id="Path_83" data-name="Path 83" class="cls-12" d="M36.587,663.114,30.613,678.9l-13.549-5.664,7.148-11.832Z" transform="translate(1212.734 1231.284)"/>
      <path id="Path_84" data-name="Path 84" class="cls-11" d="M136.087,765.342s5.082-3.176,5.717-1.906,3.176,6.67,3.176,6.67l2.858,7.94s17.468,11.116,2.541,11.751-18.738-7.94-18.738-7.94-16.833-7.3-14.292-11.751,11.433-9.058,11.433-9.058S133.228,768.835,136.087,765.342Z" transform="translate(1103.268 1139.528)"/>
      <path id="Path_85" data-name="Path 85" class="cls-11" d="M192.011,501.4l3.414,71.265S164.273,637.1,160.859,638.8a8.571,8.571,0,0,0-4.267,5.121l-18.776-4.694,8.535-13.656,18.776-45.661a7.528,7.528,0,0,0,3.841-5.548c.853-4.267,2.56-4.267-1.707-5.121a5.3,5.3,0,0,1-4.267-5.121L148.91,499.262Z" transform="translate(1094.01 1256.447)"/>
      <circle id="Ellipse_17" data-name="Ellipse 17" class="cls-12" cx="17.069" cy="17.069" r="17.069" transform="translate(1251.075 1643.082) rotate(-80.783)"/>
      <path id="Path_86" data-name="Path 86" class="cls-12" d="M178.117,272.159s-1.28,21.764-2.987,23.9,17.923,1.707,17.923,1.707-1.28-18.35,0-20.057S178.117,272.159,178.117,272.159Z" transform="translate(1077.392 1357.875)"/>
      <path id="Path_87" data-name="Path 87" class="cls-13" d="M191.912,418.389s-48.221-4.267-57.181,0c0,0,3.3-12.235,2.446-13.514-.62-.935,1.09-35.787.553-55.891-.3-11.344-2.922-22.423,4.687-30.845a23.686,23.686,0,0,1,8.528-6.436s-.852-8.107,3.414-8.533c0,0,16.22-1.71,22.191,3.414,1.909,1.627,3.11,6.585,3.237,10.857-2.955,14.532-1.909,30.657.8,47.386.166,1.063.349,2.131.531,3.2C184,384.616,188.348,401.721,191.912,418.389Z" transform="translate(1095.388 1344.148)"/>
      <path id="Path_88" data-name="Path 88" class="cls-11" d="M182.875,254.263a22.73,22.73,0,0,1,4.287.592,10.85,10.85,0,0,0,11.6-8.089,6.207,6.207,0,0,1,.593-1.933c.789-1.289,2.587-1.534,4.069-1.238a31.417,31.417,0,0,0,4.4,1.069,6.731,6.731,0,0,0,5.809-3.288,11.149,11.149,0,0,0,1.426-6.734l-1.117,1.172a5.674,5.674,0,0,1-.506-3.084,3.578,3.578,0,0,0-3.39.867c-.985.1-.242-1.827-.973-2.495a1.693,1.693,0,0,0-1.191-.223c-2.1.02-3.791-1.583-5.442-2.873a23.126,23.126,0,0,0-9.767-4.455,12.85,12.85,0,0,0-7.127.345,15.223,15.223,0,0,0-4.813,3.414c-3.513,3.378-6.624,7.348-8.086,12a20.2,20.2,0,0,0-.1,11.711c.589,1.988,2.364,8.8,4.962,8.954C180.771,260.174,178.811,254.506,182.875,254.263Z" transform="translate(1078.866 1379.734)"/>
      <path id="Path_89" data-name="Path 89" class="cls-13" d="M195,328.181l6.115.655s6,11.647,5.567,14.076-1.385.954,1.317,4.841,10.369,13.933,11.318,15.408,26.833-18.273,25.223-24.19c0,0,8.175,5.865,11.677,6.645,0,0-26.675,34.983-30.392,39.461s-6.709,3.558-11.817.9-30.952-29.132-30.952-29.132Z" transform="translate(1073.803 1332.855)"/>
      <path id="Path_90" data-name="Path 90" class="cls-15" d="M201.406,402.021l-21.255-21.255,5.379-1.754,15.345,19.811C201.041,399.884,201.224,400.953,201.406,402.021Z" transform="translate(1075.102 1310.153)"/>
    </g>
  </g>
</svg>
